<svg width="17" height="16" viewBox="0 0 17 16" fill="none" xmlns="http://www.w3.org/2000/svg">
    <path d="M3.40894 12.9775C3.32047 13.0336 1.06552 15.2474 1.06552 15.2474C1.06552 15.2474 0.0520459 16.0553 0.00387003 15.997C-0.0443059 15.9387 0.373215 15.2474 0.373215 15.2474C0.373215 15.2474 2.19961 12.9775 3.40894 11.7894C4.61827 10.6014 8.48592 6.89939 8.55306 6.80302C8.62021 6.70665 8.86462 6.23122 8.79926 6.1766C8.7339 6.12198 8.20615 6.38005 8.11103 6.45501C8.0159 6.52996 3.83661 10.5815 2.48737 11.7894C2.72454 10.6521 3.45595 9.17698 4.13928 8.10229C7.66726 2.99221 16.5188 -1.07001 16.1132 0.2522C15.6155 1.8741 13.9858 5.51604 12.556 7.47197L10.9861 7.37251L11.328 8.55257C10.8797 9.03765 10.2514 9.52006 9.54278 9.97825L8.85744 9.71906L9.14461 10.2282C6.66351 11.7427 3.47444 12.9359 3.40894 12.9775Z" fill="#4380DB"/>
</svg>
